custom-analysis
version=1
nRows=11
nColumns=42
inDegrees=no

This file contains tibia displacement and acting force.

Units are S.I. units (seconds, meters, Newtons, ...)
Angles are in degrees.

endheader
time	APT	SIT	knee_angle	aACL_R_force	pACL_R_force	aPCL_R_force	pPCL_R_force	aMCL_R_force	mMCL_R_force	pMCL_R_force	aLCL_R_force	mLCL_R_force	pLCL_R_force	aACL_R_length	pACL_R_length	aPCL_R_length	pPCL_R_length	aMCL_R_length	mMCL_R_length	pMCL_R_length	aLCL_R_length	mLCL_R_length	pLCL_R_length	aACL_R_strain	pACL_R_strain	aPCL_R_strain	pPCL_R_strain	aMCL_R_strain	mMCL_R_strain	pMCL_R_strain	aLCL_R_strain	mLCL_R_strain	pLCL_R_strain	femur_lat_meniscii_force_r	femur_lat_meniscii_torque_r	femur_med_meniscii_force_r	femur_med_meniscii_torque_r	femur_lat_tibia_force_r	femur_lat_tibia_torque_r	femur_med_tibia_force_r	femur_med_tibia_torque_r
      0.00000000	      0.00000000	      0.00000000	     15.00005728	      8.97713351	      0.96499260	      0.19485120	     75.99576998	      0.22366969	      8.10997858	      6.83469985	      0.00000000	      0.00000000	      0.00000000	      0.03311279	      0.02662436	      0.03114765	      0.03089680	      0.05836311	      0.06187900	      0.06256123	      0.05546224	      0.05309920	      0.05036743	      0.03459698	      0.01007860	      0.00168351	      0.02688795	      0.00579228	      0.03487831	      0.03018764	     -0.00919938	     -0.05716413	     -0.03773735	   1159.47322005	    269.13322120	      0.00000000	      0.00000000	      0.00000000	      0.00000000	      0.00000000	      0.00000000
      0.00022505	     -0.00000109	     -0.00000193	     15.00005728	     12.28536699	      4.64354412	      5.85506150	     90.92775727	      9.45088257	     17.44620856	     15.84979559	      0.00000000	      0.00000000	      0.00000000	      0.03311395	      0.02662559	      0.03114975	      0.03089889	      0.05836486	      0.06188077	      0.06256295	      0.05546439	      0.05310131	      0.05036953	      0.03463296	      0.01012534	      0.00175121	      0.02695751	      0.00582253	      0.03490795	      0.03021589	     -0.00916112	     -0.05712657	     -0.03769704	    779.31059303	    167.32329539	      0.00000000	      0.00000000	      0.00000000	      0.00000000	      0.00000000	      0.00000000
      0.00054346	     -0.00000478	     -0.00000721	     15.00005728	     13.10628633	      5.73484796	      7.67164257	     96.22122632	     11.15866854	     19.25563072	     17.44873446	      0.00000000	      0.00000000	      0.00000000	      0.03311707	      0.02662904	      0.03115569	      0.03090476	      0.05836948	      0.06188544	      0.06256743	      0.05547037	      0.05310720	      0.05037540	      0.03473066	      0.01025638	      0.00194224	      0.02715259	      0.00590202	      0.03498610	      0.03028969	     -0.00905415	     -0.05702200	     -0.03758499	    643.01877057	    128.52876320	      0.00000000	      0.00000000	      0.00000000	      0.00000000	      0.00000000	      0.00000000
      0.00094020	     -0.00001119	     -0.00001410	     15.00005728	     12.74941776	      5.58068894	      7.86146069	     97.47915972	      9.60875624	     17.79499455	     15.83869959	      0.00000000	      0.00000000	      0.00000000	      0.03312101	      0.02663364	      0.03116389	      0.03091278	      0.05837505	      0.06189112	      0.06257278	      0.05547851	      0.05311515	      0.05038330	      0.03485369	      0.01043082	      0.00220583	      0.02741899	      0.00599798	      0.03508103	      0.03037773	     -0.00890873	     -0.05688079	     -0.03743403	    612.30268262	    117.07416336	      0.00000000	      0.00000000	      0.00000000	      0.00000000	      0.00000000	      0.00000000
      0.00154489	     -0.00002350	     -0.00002348	     15.00005728	     11.90929182	      4.94669526	      7.73359788	     98.25796032	      6.83564371	     15.11567585	     13.01099793	      0.00000000	      0.00000000	      0.00000000	      0.03312589	      0.02663992	      0.03117616	      0.03092459	      0.05838161	      0.06189789	      0.06257893	      0.05549048	      0.05312674	      0.05039478	      0.03500626	      0.01066899	      0.00260033	      0.02781159	      0.00611115	      0.03519430	      0.03047901	     -0.00869492	     -0.05667504	     -0.03721470	    602.41083958	    110.43981018	      0.00000000	      0.00000000	      0.00000000	      0.00000000	      0.00000000	      0.00000000
      0.00242807	     -0.00004552	     -0.00003511	     15.00005728	     10.55032851	      3.75030239	      7.61204320	     99.46928323	      3.38521461	     11.73894393	      9.51469679	      0.00000000	      0.00000000	      0.00000000	      0.03313067	      0.02664730	      0.03119381	      0.03094126	      0.05838784	      0.06190447	      0.06258444	      0.05550750	      0.05314307	      0.05041092	      0.03515554	      0.01094885	      0.00316801	      0.02836554	      0.00621846	      0.03530437	      0.03056973	     -0.00839087	     -0.05638511	     -0.03690639	    605.68907813	    108.26212411	      0.00000000	      0.00000000	      0.00000000	      0.00000000	      0.00000000	      0.00000000
      0.00315381	     -0.00006584	     -0.00004263	     15.00005728	     10.21226317	      3.54456463	      8.31627978	    102.43977527	      2.54704682	     10.93767482	      8.63220625	      0.00000000	      0.00000000	      0.00000000	      0.03313246	      0.02665153	      0.03120757	      0.03095397	      0.05839003	      0.06190698	      0.06258599	      0.05552079	      0.05315572	      0.05042341	      0.03521144	      0.01110957	      0.00361045	      0.02878823	      0.00625629	      0.03534629	      0.03059534	     -0.00815343	     -0.05616041	     -0.03666784	    565.24993081	     98.49043346	      0.00000000	      0.00000000	      0.00000000	      0.00000000	      0.00000000	      0.00000000
      0.00387955	     -0.00008814	     -0.00004984	     15.00005728	      9.15840395	      2.57204285	      7.83470628	    102.31258015	     -0.37151537	      8.03381590	      5.70418982	      0.00000000	      0.00000000	      0.00000000	      0.03313330	      0.02665504	      0.03122210	      0.03096730	      0.05839122	      0.06190849	      0.06258649	      0.05553504	      0.05316929	      0.05043680	      0.03523773	      0.01124246	      0.00407785	      0.02923096	      0.00627667	      0.03537150	      0.03060350	     -0.00789890	     -0.05591956	     -0.03641198	    589.68667090	    103.32723065	      0.00000000	      0.00000000	      0.00000000	      0.00000000	      0.00000000	      0.00000000
      0.00460528	     -0.00011127	     -0.00005541	     15.00005728	      9.26593691	      2.80768807	      8.64708152	    105.42930455	     -0.45307443	      7.96244821	      5.58431569	      0.00000000	      0.00000000	      0.00000000	      0.03313284	      0.02665741	      0.03123558	      0.03097942	      0.05839012	      0.06190772	      0.06258470	      0.05554856	      0.05318210	      0.05044943	      0.03522331	      0.01133263	      0.00451141	      0.02963401	      0.00625771	      0.03535865	      0.03057397	     -0.00765741	     -0.05569204	     -0.03617057	    533.61087622	     88.60109853	      0.00000000	      0.00000000	      0.00000000	      0.00000000	      0.00000000	      0.00000000
      0.00533102	     -0.00013525	     -0.00006114	     15.00005728	      8.70600885	      2.33797825	      7.86608617	    104.36979611	     -3.20409534	      5.20860613	      2.84313746	      0.00000000	      0.00000000	      0.00000000	      0.03313252	      0.02666010	      0.03124951	      0.03099189	      0.05838850	      0.06190645	      0.06258237	      0.05556306	      0.05319589	      0.05046303	      0.03521344	      0.01143470	      0.00495931	      0.03004854	      0.00622982	      0.03533737	      0.03053569	     -0.00739831	     -0.05544728	     -0.03591076	    568.34531494	     98.03933384	      0.00000000	      0.00000000	      0.00000000	      0.00000000	      0.00000000	      0.00000000
      0.00605676	     -0.00015910	     -0.00006552	     15.00005728	      9.34114336	      3.10769739	      8.84548872	    107.74187642	     -2.46696075	      5.94205483	      3.54110346	      0.00000000	      0.00000000	      0.00000000	      0.03313173	      0.02666245	      0.03126200	      0.03100285	      0.05838492	      0.06190322	      0.06257811	      0.05557671	      0.05320882	      0.05047577	      0.03518851	      0.01152356	      0.00536086	      0.03041251	      0.00616811	      0.03528337	      0.03046546	     -0.00715459	     -0.05521770	     -0.03566743	    505.69784887	     83.33068475	      0.00000000	      0.00000000	      0.00000000	      0.00000000	      0.00000000	      0.00000000
